524288 12022999
1048576 12022999
1572864 12022999
2097152 12022999
2621440 12022999
3145728 12022999
3670016 12022999
4194304 12022999
4718592 12022999
5242880 12022999
5767168 12022999
6291456 12022999
6815744 12022999
7340032 12022999
7864320 12022999
8388608 12022999
8912896 12022999
9437184 12022999
9961472 12022999
10485760 12022999
11010048 12022999
11534336 12022999
12022999 12022999
util.pump() is deprecated. Use readableStream.pipe() instead.
null
{ [Error: Command failed: /bin/sh: 1: ffmpeg: not found
] killed: false, code: 127, signal: null }
524288 12022999
1048576 12022999
1572864 12022999
2097152 12022999
2621440 12022999
3145728 12022999
3670016 12022999
4194304 12022999
4718592 12022999
5242880 12022999
5767168 12022999
6291456 12022999
6815744 12022999
7340032 12022999
7864320 12022999
8388608 12022999
8912896 12022999
9437184 12022999
9961472 12022999
10485760 12022999
11010048 12022999
11534336 12022999
12022999 12022999
null
{ [Error: Command failed: /bin/sh: 1: ffmpeg: not found
] killed: false, code: 127, signal: null }
524288 12022999
1048576 12022999
1572864 12022999
2097152 12022999
2621440 12022999
3145728 12022999
3670016 12022999
4194304 12022999
4718592 12022999
5242880 12022999
5767168 12022999
6291456 12022999
6815744 12022999
7340032 12022999
7864320 12022999
8388608 12022999
8912896 12022999
9437184 12022999
9961472 12022999
10485760 12022999
11010048 12022999
11534336 12022999
12022999 12022999
null
{ [Error: Command failed: ffmpeg version 2.3.3 Copyright (c) 2000-2014 the FFmpeg developers
  built on May 23 2015 00:09:43 with gcc 4.8 (Ubuntu 4.8.2-19ubuntu1)
  configuration: 
  libavutil      52. 92.100 / 52. 92.100
  libavcodec     55. 69.100 / 55. 69.100
  libavformat    55. 48.100 / 55. 48.100
  libavdevice    55. 13.102 / 55. 13.102
  libavfilter     4. 11.100 /  4. 11.100
  libswscale      2.  6.100 /  2.  6.100
  libswresample   0. 19.100 /  0. 19.100
Input #0, mov,mp4,m4a,3gp,3g2,mj2, from 'Video/3.webm':
  Metadata:
    major_brand     : isom
    minor_version   : 512
    compatible_brands: isomiso2avc1mp41
    encoder         : Lavf56.30.100
  Duration: 00:01:29.93, start: 0.000000, bitrate: 1069 kb/s
    Stream #0:0(und): Video: h264 (High) (avc1 / 0x31637661), yuv420p, 960x720 [SAR 1:1 DAR 4:3], 870 kb/s, 29.97 fps, 29.97 tbr, 30k tbn, 59.94 tbc (default)
    Metadata:
      handler_name    : VideoHandler
    Stream #0:1(und): Audio: aac (mp4a / 0x6134706D), 44100 Hz, stereo, fltp, 192 kb/s (default)
    Metadata:
      handler_name    : SoundHandler
Unknown encoder 'libmp3lame'
] killed: false, code: 1, signal: null }
524288 12022999
1048576 12022999
1572864 12022999
2097152 12022999
2621440 12022999
3145728 12022999
3670016 12022999
4194304 12022999
4718592 12022999
5242880 12022999
5767168 12022999
6291456 12022999
6815744 12022999
7340032 12022999
7864320 12022999
8388608 12022999
8912896 12022999
9437184 12022999
9961472 12022999
10485760 12022999
11010048 12022999
11534336 12022999
12022999 12022999
null
{ [Error: Command failed: ffmpeg version 2.3.3 Copyright (c) 2000-2014 the FFmpeg developers
  built on May 23 2015 00:09:43 with gcc 4.8 (Ubuntu 4.8.2-19ubuntu1)
  configuration: 
  libavutil      52. 92.100 / 52. 92.100
  libavcodec     55. 69.100 / 55. 69.100
  libavformat    55. 48.100 / 55. 48.100
  libavdevice    55. 13.102 / 55. 13.102
  libavfilter     4. 11.100 /  4. 11.100
  libswscale      2.  6.100 /  2.  6.100
  libswresample   0. 19.100 /  0. 19.100
Input #0, mov,mp4,m4a,3gp,3g2,mj2, from 'Video/4.webm':
  Metadata:
    major_brand     : isom
    minor_version   : 512
    compatible_brands: isomiso2avc1mp41
    encoder         : Lavf56.30.100
  Duration: 00:01:29.93, start: 0.000000, bitrate: 1069 kb/s
    Stream #0:0(und): Video: h264 (High) (avc1 / 0x31637661), yuv420p, 960x720 [SAR 1:1 DAR 4:3], 870 kb/s, 29.97 fps, 29.97 tbr, 30k tbn, 59.94 tbc (default)
    Metadata:
      handler_name    : VideoHandler
    Stream #0:1(und): Audio: aac (mp4a / 0x6134706D), 44100 Hz, stereo, fltp, 192 kb/s (default)
    Metadata:
      handler_name    : SoundHandler
Unknown encoder 'libmp3lame'
] killed: false, code: 1, signal: null }
524288 12022999
1048576 12022999
1572864 12022999
2097152 12022999
2621440 12022999
3145728 12022999
3670016 12022999
4194304 12022999
4718592 12022999
5242880 12022999
5767168 12022999
6291456 12022999
6815744 12022999
7340032 12022999
7864320 12022999
8388608 12022999
8912896 12022999
9437184 12022999
9961472 12022999
10485760 12022999
11010048 12022999
11534336 12022999
12022999 12022999
null
null
524288 12022999
1048576 12022999
1572864 12022999
2097152 12022999
2621440 12022999
3145728 12022999
3670016 12022999
4194304 12022999
4718592 12022999
5242880 12022999
5767168 12022999
6291456 12022999
6815744 12022999
7340032 12022999
7864320 12022999
8388608 12022999
8912896 12022999
9437184 12022999
9961472 12022999
10485760 12022999
11010048 12022999
11534336 12022999
12022999 12022999
null
null
524288 12022999
1048576 12022999
1572864 12022999
2097152 12022999
2621440 12022999
3145728 12022999
3670016 12022999
4194304 12022999
4718592 12022999
5242880 12022999
5767168 12022999
6291456 12022999
6815744 12022999
7340032 12022999
7864320 12022999
8388608 12022999
8912896 12022999
9437184 12022999
9961472 12022999
10485760 12022999
11010048 12022999
11534336 12022999
12022999 12022999
null
null
524288 12022999
1048576 12022999
1572864 12022999
2097152 12022999
2621440 12022999
3145728 12022999
3670016 12022999
4194304 12022999
4718592 12022999
5242880 12022999
5767168 12022999
6291456 12022999
6815744 12022999
7340032 12022999
7864320 12022999
8388608 12022999
8912896 12022999
9437184 12022999
9961472 12022999
10485760 12022999
11010048 12022999
11534336 12022999
12022999 12022999
null
null
524288 12022999
1048576 12022999
1572864 12022999
2097152 12022999
2621440 12022999
3145728 12022999
3670016 12022999
4194304 12022999
4718592 12022999
5242880 12022999
5767168 12022999
6291456 12022999
6815744 12022999
7340032 12022999
7864320 12022999
8388608 12022999
8912896 12022999
9437184 12022999
9961472 12022999
10485760 12022999
11010048 12022999
11534336 12022999
12022999 12022999
null
null
524288 14372338
1048576 14372338
1572864 14372338
2097152 14372338
2621440 14372338
3145728 14372338
3670016 14372338
4194304 14372338
4718592 14372338
5242880 14372338
5767168 14372338
6291456 14372338
6815744 14372338
7340032 14372338
7864320 14372338
8388608 14372338
8912896 14372338
9437184 14372338
9961472 14372338
10485760 14372338
11010048 14372338
11534336 14372338
12058624 14372338
12582912 14372338
13107200 14372338
13631488 14372338
14155776 14372338
14372338 14372338
null
null
524288 8531173
1048576 8531173
1572864 8531173
2097152 8531173
2621440 8531173
3145728 8531173
3670016 8531173
4194304 8531173
4718592 8531173
5242880 8531173
5767168 8531173
6291456 8531173
6815744 8531173
7340032 8531173
7864320 8531173
8388608 8531173
8531173 8531173
null
null
524288 11891624
1048576 11891624
1572864 11891624
2097152 11891624
2621440 11891624
3145728 11891624
3670016 11891624
4194304 11891624
4718592 11891624
5242880 11891624
5767168 11891624
6291456 11891624
6815744 11891624
7340032 11891624
7864320 11891624
8388608 11891624
8912896 11891624
9437184 11891624
9961472 11891624
10485760 11891624
11010048 11891624
11534336 11891624
11891624 11891624
null
null
524288 14799825
1048576 14799825
1572864 14799825
2097152 14799825
2621440 14799825
3145728 14799825
3670016 14799825
4194304 14799825
4718592 14799825
5242880 14799825
5767168 14799825
6291456 14799825
6815744 14799825
7340032 14799825
7864320 14799825
8388608 14799825
8912896 14799825
9437184 14799825
9961472 14799825
10485760 14799825
11010048 14799825
11534336 14799825
12058624 14799825
12582912 14799825
13107200 14799825
13631488 14799825
14155776 14799825
14680064 14799825
14799825 14799825
null
null
524288 10478318
1048576 10478318
1572864 10478318
2097152 10478318
2621440 10478318
3145728 10478318
3670016 10478318
4194304 10478318
4718592 10478318
5242880 10478318
5767168 10478318
6291456 10478318
6815744 10478318
7340032 10478318
7864320 10478318
8388608 10478318
8912896 10478318
9437184 10478318
9961472 10478318
10478318 10478318
null
null
524288 13558211
1048576 13558211
1572864 13558211
2097152 13558211
2621440 13558211
3145728 13558211
3670016 13558211
4194304 13558211
4718592 13558211
5242880 13558211
5767168 13558211
6291456 13558211
6815744 13558211
7340032 13558211
7864320 13558211
8388608 13558211
8912896 13558211
9437184 13558211
9961472 13558211
10485760 13558211
11010048 13558211
11534336 13558211
12058624 13558211
12582912 13558211
13107200 13558211
13558211 13558211
null
null
524288 14799825
1048576 14799825
1572864 14799825
2097152 14799825
2621440 14799825
3145728 14799825
3670016 14799825
4194304 14799825
4718592 14799825
5242880 14799825
5767168 14799825
6291456 14799825
6815744 14799825
7340032 14799825
7864320 14799825
8388608 14799825
8912896 14799825
9437184 14799825
9961472 14799825
10485760 14799825
11010048 14799825
11534336 14799825
12058624 14799825
12582912 14799825
13107200 14799825
13631488 14799825
14155776 14799825
14680064 14799825
14799825 14799825
null
null
